<mxfile host="app.diagrams.net" modified="2024-06-07T06:10:34.227Z" agent="Mozilla/5.0 (Windows NT 10.0; Win64; x64) AppleWebKit/537.36 (KHTML, like Gecko) Chrome/125.0.0.0 Safari/537.36" version="24.4.13" etag="zdZgVz2u9TKNOV6mmo5Z" type="github">
  <diagram name="第 1 页" id="HKGODpCxfkMQ4LzSjgvv">
    <mxGraphModel>
      <root>
        <mxCell id="0" />
        <mxCell id="1" parent="0" />
      </root>
    </mxGraphModel>
  </diagram>
</mxfile>
